<?xml version="1.0" encoding="utf-8"?>
<!-- Generator: Adobe Illustrator 27.5.0, SVG Export Plug-In . SVG Version: 6.00 Build 0)  -->
<svg version="1.1" id="_x3C_Layer_x3E_" xmlns="http://www.w3.org/2000/svg" xmlns:xlink="http://www.w3.org/1999/xlink" x="0px"
	 y="0px" viewBox="0 0 2760 1840" style="enable-background:new 0 0 2760 1840;" xml:space="preserve">
<rect style="fill:#FFFFFF;" width="2760" height="1840"/>
<g>
	<g>
		<path style="fill:#6F4975;" d="M2250.331,1699.143c-196.013,25.66-397.953,14.969-810.574-11.882
			c-231.695-15.076-697.554,9.903-930.088,11.882c-169.527,1.443-306.969-130.906-306.969-292.389V914.209V399.695
			c0-161.482,137.728-301.887,306.969-292.389c157.169,8.82,388.343,43.742,629.325,22.359
			c286.613-25.431,830.623-47.042,1111.337-22.359C2419.147,122.15,2557.3,238.213,2557.3,399.695v1007.059
			C2557.3,1568.236,2418.287,1677.156,2250.331,1699.143z"/>
	</g>
	<g style="opacity:0.5;">
		<ellipse style="fill:#2F1A31;" cx="1405.397" cy="1421.906" rx="1058.127" ry="93.915"/>
	</g>
	<g>
		<path style="fill:#4F3153;" d="M1215.408,696.443H816.391c-56.058,0-101.923,45.865-101.923,101.923v333.231
			c0,56.057,45.865,101.922,101.923,101.922h399.018c56.057,0,101.922-45.865,101.922-101.922V798.366
			C1317.33,742.309,1271.465,696.443,1215.408,696.443z"/>
	</g>
	<g>
		<path style="fill:#56375B;" d="M1234.556,696.443H864.406c-54.412,0-98.932,44.519-98.932,98.933v339.211
			c0,54.413,44.52,98.933,98.932,98.933h370.149c54.413,0,98.933-44.52,98.933-98.933V795.376
			C1333.488,740.963,1288.969,696.443,1234.556,696.443z"/>
	</g>
	<g>
		<g>
			<g>
				<path style="fill:#2F1A31;" d="M906.716,1394.875L906.716,1394.875c-3.985-0.061-6.846-6.724-5.847-12.857l16.819-103.453
					h21.626l-26.796,109.682C911.529,1392.298,909.24,1394.912,906.716,1394.875z"/>
			</g>
		</g>
		<g>
			<path style="fill:#2F1A31;" d="M917.19,1281.629c0,0,11.772-1.83,19.042,9.554l3.083-12.618l-21.511-1.318L917.19,1281.629z"/>
		</g>
	</g>
	<g>
		<g>
			<path style="fill:#2F1A31;" d="M2305.053,1402.195L2305.053,1402.195c3.992-0.061,6.857-6.724,5.856-12.857l-16.464-102.37
				h-22.319l23.896,108.099C2296.992,1402.195,2302.524,1402.232,2305.053,1402.195z"/>
		</g>
	</g>
	<g>
		<g>
			<path style="fill:#2F1A31;" d="M1857.447,1402.195L1857.447,1402.195c3.993-0.061,6.856-6.724,5.856-12.857l-16.464-102.37
				h-22.32l23.897,108.099C1849.387,1402.195,1854.92,1402.232,1857.447,1402.195z"/>
		</g>
	</g>
	<g>
		<path style="fill:#4F3153;" d="M2231.214,1291.183H742.832c-15.601,0-28.364-12.764-28.364-28.362v-73.852
			c0-15.6,12.764-28.361,28.364-28.361h1488.382c15.6,0,28.362,12.762,28.362,28.361v73.852
			C2259.576,1278.419,2246.813,1291.183,2231.214,1291.183z"/>
	</g>
	<g>
		<path style="fill:#2F1A31;" d="M2321.305,1291.183h-607.848c-23.233,0-42.242-19.01-42.242-42.242v-46.093
			c0-23.232,19.009-42.24,42.242-42.24h607.848c23.232,0,42.242,19.008,42.242,42.24v46.093
			C2363.547,1272.173,2344.537,1291.183,2321.305,1291.183z"/>
	</g>
	<g>
		<path style="fill:#74A1BD;" d="M1395.429,1084.645c-68.51,2.007-91.903-68.268-152.059-74.291
			c-1.948-0.194-3.874-0.32-5.778-0.382l-0.007-0.049h-381v150.685h314.965h87.202h225.792
			C1484.544,1160.607,1463.938,1082.636,1395.429,1084.645z"/>
	</g>
	<g>
		<path style="fill:#436E8E;" d="M1112.456,1160.606c0,0-20.606-77.971-89.116-75.962c-68.51,2.007-91.902-68.268-152.059-74.291
			c-60.154-6.023-100.195,51.534-71.82,150.253H1112.456z"/>
	</g>
	<g style="opacity:0.2;">
		<g>
			<g>
				<g>
					<path style="fill:#2F1A31;" d="M888.154,437.25c-1.61,0-2.554-0.088-2.597-0.092l0.102-1.026
						c0.198,0.021,20.066,1.843,35.597-12.105l0.678,0.77C909.42,436.036,894.155,437.25,888.154,437.25z"/>
				</g>
			</g>
		</g>
		<g>
			<g>
				<g>
					<path style="fill:#2F1A31;" d="M911.136,448.921c-7.031-1.023-11.461-4.24-13.938-6.758c-2.698-2.741-3.714-5.22-3.756-5.324
						l0.946-0.389c0.038,0.096,4.021,9.576,16.894,11.449L911.136,448.921z"/>
				</g>
			</g>
		</g>
		<g>
			<path style="fill:#2F1A31;" d="M579.203,586.667h-37.108l-3.874-148.069c0,0,5.663-2.751,14.491-3.592
				c11.958-1.139,22.82-0.673,22.82-0.673L579.203,586.667z"/>
		</g>
		<g>
			<polygon style="fill:#2F1A31;" points="674.358,586.667 579.203,586.667 575.532,434.333 674.358,438.598 			"/>
		</g>
		<g>
			<path style="fill:#2F1A31;" d="M639.831,586.667H612.12V402.941c0,0,5.736-1.631,13.299-2.244c8.327-0.674,19.07,0,19.07,0
				L639.831,586.667z"/>
		</g>
		<g>
			<polygon style="fill:#2F1A31;" points="710.894,586.667 639.831,586.667 644.489,400.697 710.894,402.941 			"/>
		</g>
		<g>
			<path style="fill:#2F1A31;" d="M706.283,586.667h-20.859L656.455,448.37c0,0,3.525-0.919,8.855-1.171
				c6.184-0.293,12.005,1.171,12.005,1.171L706.283,586.667z"/>
		</g>
		<g>
			<polygon style="fill:#2F1A31;" points="759.773,586.667 706.283,586.667 677.315,448.37 730.354,456.015 			"/>
		</g>
		<g>
			<path style="fill:#2F1A31;" d="M538.718,457.565c0,0,7.831-2.069,16.493-1.551c8.661,0.52,20.321-2.343,20.321-2.343
				L538.718,457.565z"/>
		</g>
		<g>
			<path style="fill:#2F1A31;" d="M612.12,416.994c0,0,19.229-2.876,31.962,0H612.12z"/>
		</g>
		<g>
			<path style="fill:#2F1A31;" d="M612.12,423.905c0,0,21.065-1.801,31.715,2.968L612.12,423.905z"/>
		</g>
		<g>
			<path style="fill:#2F1A31;" d="M612.12,563.165c0,0,18.901-3.028,28.301,0H612.12z"/>
		</g>
		<g>
			<path style="fill:#2F1A31;" d="M612.12,568.211c0,0,17.648-2.355,28.174,0H612.12z"/>
		</g>
		<g>
			<g>
				<path style="fill:#2F1A31;" d="M659.784,464.262l-0.208-0.986c0.548-0.118,13.503-2.852,21.139,0.021l-0.35,0.944
					C672.998,461.469,659.915,464.234,659.784,464.262z"/>
			</g>
		</g>
		<g>
			<g>
				<path style="fill:#2F1A31;" d="M660.65,468.484l-0.173-0.993c0.502-0.09,12.415-2.163,21.013,0.007l-0.243,0.98
					C672.857,466.361,660.772,468.463,660.65,468.484z"/>
			</g>
		</g>
		<g>
			<g>
				<path style="fill:#2F1A31;" d="M680.3,562.316l-0.163-0.994c0.517-0.087,12.77-2.096,21.064,0.007l-0.243,0.979
					C692.867,560.255,680.425,562.296,680.3,562.316z"/>
			</g>
		</g>
		<g>
			<g>
				<path style="fill:#2F1A31;" d="M702.093,567.657c-10.44-2.259-20.515-0.023-20.614-0.001l-0.22-0.984
					c0.104-0.023,10.394-2.306,21.044-0.001L702.093,567.657z"/>
			</g>
		</g>
		<g>
			<g>
				<path style="fill:#2F1A31;" d="M898.256,553.089c0,0-0.677,1.769-2.152,4.7c-0.044,0.074-0.083,0.162-0.122,0.244
					c-0.006,0.006-0.006,0.006-0.012,0.013c-2.589,5.082-7.52,13.45-15.411,22.046c-2.695,2.935-6.345,5.226-10.633,6.926h-0.006
					l-0.089,0.038c-0.917,0.357-1.861,0.696-2.829,0.997c0,0,0,0-0.005,0c-13.802,4.392-32.753,3.451-47.633-1.323h-0.006
					l-2.561-0.879h-0.005c-1.275-0.465-2.511-0.953-3.707-1.475c-3.851-1.675-6.981-3.795-9.525-6.142
					c-0.324-0.301-0.638-0.602-0.945-0.909c-10.318-10.309-10.134-24.236-10.134-24.236H898.256z"/>
			</g>
			<g>
				<path style="fill:#2F1A31;" d="M901.649,532.035v15.239c0,9.429-25.513,17.07-56.99,17.07c-31.473,0-56.991-7.642-56.991-17.07
					v-15.239c0-4.787,14.696-8.89,35.531-10.584c6.624-0.546,13.868-0.846,21.46-0.846
					C876.137,520.606,901.649,525.717,901.649,532.035z"/>
			</g>
			<g>
				<path style="fill:#2F1A31;" d="M901.649,532.035c0,0.923-0.536,1.813-1.555,2.666c-5.976,5.019-28.521,8.771-55.436,8.771
					c-7.536,0-14.742-0.294-21.321-0.833c-20.912-1.695-35.67-5.798-35.67-10.603c0-4.787,14.696-8.89,35.531-10.584
					c6.624-0.546,13.868-0.846,21.46-0.846C876.137,520.606,901.649,525.717,901.649,532.035z"/>
			</g>
			<g>
				<g>
					<path style="fill:#2F1A31;" d="M848.093,374.135c-5.467,3.602-8.113,2.724-9.371,0.319c-1.258-2.405-0.652-5.426,4.815-9.028
						c9.96-6.562,17.051-5.379,17.051-5.379S858.197,367.477,848.093,374.135z"/>
				</g>
				<g>
					<path style="fill:#2F1A31;" d="M847.818,420.24c-4.135,5.394-6.892,5.524-8.774,3.706c-1.884-1.819-2.182-4.898,1.953-10.292
						c7.532-9.825,14.583-11.281,14.583-11.281S855.46,410.271,847.818,420.24z"/>
				</g>
				<g>
					<g>
						<g>
							<path style="fill:#2F1A31;" d="M845.292,540.229l-1.195-0.116c0.016-0.206,1.523-21.036-4.713-51.548
								c-5.756-28.153-19.472-70.544-52.132-112.615l0.904-0.884c32.842,42.303,46.627,84.939,52.408,113.257
								C846.835,519.024,845.308,540.021,845.292,540.229z"/>
						</g>
					</g>
					<g>
						<g>
							<path style="fill:#2F1A31;" d="M820.315,428.183l-1.011-0.726c23.502-41.183,9.341-91.186,9.195-91.687l1.139-0.419
								C829.786,335.857,844.129,386.453,820.315,428.183z"/>
						</g>
					</g>
					<g>
						<g>
							<path style="fill:#2F1A31;" d="M802.247,406.333c-12.188,0-21.398-6.848-21.504-6.928l0.67-1.116
								c0.118,0.088,11.922,8.844,26.329,6.202l0.194,1.33C805.986,406.178,804.082,406.333,802.247,406.333z"/>
						</g>
					</g>
					<g>
						<g>
							<path style="fill:#2F1A31;" d="M843.268,509.89c-24.646-3.145-44.619-16.633-59.365-40.086
								c-0.512-0.813-0.994-1.579-1.137-1.717c0.002,0.003,0.043,0.042,0.122,0.071l0.379-1.278
								c0.336,0.126,0.548,0.449,1.615,2.147c14.541,23.126,34.229,36.423,58.521,39.523L843.268,509.89z"/>
						</g>
					</g>
					<g>
						<g>
							<path style="fill:#2F1A31;" d="M808.419,495.389l-1.159-0.352c4.258-17.642-6.224-43.584-6.33-43.844l1.089-0.563
								c0.027,0.066,2.729,6.705,4.854,15.472C808.842,474.225,810.709,485.898,808.419,495.389z"/>
						</g>
					</g>
					<g>
						<g>
							<path style="fill:#2F1A31;" d="M786.45,368.441c6.349,6.427,6.888,10.018,5.224,12.088c-1.665,2.07-4.902,1.837-11.251-4.589
								c-11.564-11.707-14.14-21.115-14.14-21.115S774.717,356.564,786.45,368.441z"/>
						</g>
					</g>
					<g>
						<g>
							<path style="fill:#2F1A31;" d="M783.961,395.052c7.78,3.98,9.259,7.221,8.228,9.758c-1.03,2.537-4.18,3.411-11.959-0.569
								c-14.171-7.25-19.156-15.348-19.156-15.348S769.584,387.697,783.961,395.052z"/>
						</g>
					</g>
					<g>
						<g>
							<path style="fill:#2F1A31;" d="M804.505,446.813c2.904,6.324,1.977,9.241-0.231,10.519c-2.21,1.277-4.864,0.432-7.768-5.893
								c-5.29-11.522-3.847-19.402-3.847-19.402S799.138,435.123,804.505,446.813z"/>
						</g>
					</g>
					<g>
						<g>
							<path style="fill:#2F1A31;" d="M814.519,384.882c1.446,6.928-0.085,9.504-2.505,10.14c-2.419,0.636-4.81-0.909-6.256-7.837
								c-2.634-12.619,0.473-19.87,0.473-19.87S811.846,372.079,814.519,384.882z"/>
						</g>
					</g>
					<g>
						<g>
							<path style="fill:#2F1A31;" d="M824.289,488.255c-0.347,7.104-2.461,9.094-4.942,8.94c-2.482-0.152-4.389-2.389-4.042-9.494
								c0.633-12.941,5.432-18.92,5.432-18.92S824.932,475.124,824.289,488.255z"/>
						</g>
					</g>
					<g>
						<g>
							<path style="fill:#2F1A31;" d="M789.322,468.6c4.043,5.48,3.694,8.553,1.78,10.331c-1.913,1.778-4.668,1.591-8.711-3.889
								c-7.366-9.983-7.461-18.028-7.461-18.028S781.849,458.472,789.322,468.6z"/>
						</g>
					</g>
					<g>
						<g>
							<path style="fill:#2F1A31;" d="M832.169,329.897c1.992,9.331,0.626,12.633-1.79,13.283c-2.417,0.65-4.968-1.599-6.961-10.929
								c-3.63-16.998-1.008-26.39-1.008-26.39S828.487,312.651,832.169,329.897z"/>
						</g>
					</g>
				</g>
			</g>
			<g>
				<path style="fill:#2F1A31;" d="M846.155,542.029c0,0-31.255-130.921-62.59-120.067c-31.335,10.853,38.264,82.52,46.286,120.955
					L846.155,542.029z"/>
			</g>
			<g>
				<g>
					<path style="fill:#2F1A31;" d="M841.566,536.117c0,0-47.824-105.053-77.67-89.362s48.643,62.395,61.535,93.474L841.566,536.117
						z"/>
				</g>
				<g>
					<g>
						<path style="fill:#2F1A31;" d="M832.339,538.617c-16.351-41.368-59.479-77.456-59.913-77.816l0.787-1.196
							c0.438,0.362,43.844,36.678,60.337,78.408L832.339,538.617z"/>
					</g>
				</g>
			</g>
			<g>
				<g>
					<path style="fill:#2F1A31;" d="M932.213,461.838c-11.194,16.165,8.4,37.255-10.392,47.583
						c-18.802,10.318-18.214,6.941-20.042,21.577c0,0,0.291,2.237-1.684,3.705c-5.977,5.023-28.52,8.769-55.437,8.769
						c-7.538,0-14.74-0.29-21.32-0.832c-1.639-4.724-3.183-12.515-0.139-21.188c1.113-3.185,2.855-6.485,5.435-9.796
						c13.997-17.945,25.201-14.364,22-47.572c-3.199-33.219,36.792-18.856,46.787-30.073c9.996-11.218,16.801-23.792,34.791-18.855
						C950.213,420.102,943.417,445.684,932.213,461.838z"/>
				</g>
			</g>
			<g>
				<g>
					<g>
						<path style="fill:#2F1A31;" d="M853.008,544.666l-1.152-0.375c0.147-0.569,15.501-57.839,85.016-126.298l0.792,1.012
							C868.409,487.207,853.154,544.1,853.008,544.666z"/>
					</g>
				</g>
				<g>
					<g>
						<path style="fill:#2F1A31;" d="M874.206,472.501c-16.396-0.662-23.635-6.615-23.935-6.868l0.721-1.077
							c0.07,0.061,7.279,5.954,23.258,6.6L874.206,472.501z"/>
					</g>
				</g>
				<g>
					<g>
						<path style="fill:#2F1A31;" d="M884.134,482.119c-6.503-2.73-11.84-10.452-15.433-22.333
							c-2.691-8.897-3.486-17.11-3.493-17.192l1.192-0.142c0.03,0.321,3.201,32.13,18.154,38.406L884.134,482.119z"/>
					</g>
				</g>
				<g>
					<g>
						<path style="fill:#2F1A31;" d="M901.454,462.796c-1.892,0-3-0.115-3.051-0.12l0.119-1.339
							c0.233,0.026,23.576,2.406,41.823-15.81l0.797,1.006C926.44,461.211,908.506,462.796,901.454,462.796z"/>
					</g>
				</g>
				<g>
					<g>
						<path style="fill:#2F1A31;" d="M928.456,478.037c-8.261-1.337-13.466-5.537-16.378-8.824c-3.168-3.58-4.362-6.817-4.412-6.953
							l1.111-0.508c0.046,0.125,4.725,12.506,19.85,14.952L928.456,478.037z"/>
					</g>
				</g>
				<g>
					<g>
						<path style="fill:#2F1A31;" d="M895.88,526.501c-17.869,0-30.828-12.322-30.973-12.464l0.783-1.02
							c0.159,0.153,16.21,15.393,37.049,11.503l0.196,1.329C900.516,526.3,898.157,526.501,895.88,526.501z"/>
					</g>
				</g>
				<g>
					<g>
						<path style="fill:#2F1A31;" d="M878.143,521.975l-1.018-0.714c3.565-6.405,11.875-15.013,31.227-19.631
							c11.511-2.746,21.653-2.781,21.754-2.782v1.347C929.707,500.194,890.11,500.466,878.143,521.975z"/>
					</g>
				</g>
			</g>
		</g>
		<g>
			<polygon style="fill:#2F1A31;" points="943.174,604.539 533.158,608.61 533.158,584.346 939.537,584.346 			"/>
		</g>
	</g>
	<g>
		<g>
			<path style="fill:#4F3153;" d="M1149.925,1353.822c0,0-21.43-22.06-14.056-34.623c7.373-12.563,19.816,26.989,19.816,26.989
				s-6.453-46.771,6.912-47.582c13.364-0.813,0,47.582,0,47.582s4.954-11.284,9.793-11.982s3.456,9.568-5.185,19.616H1149.925z"/>
		</g>
		<g>
			<path style="fill:#2F1A31;" d="M1151.416,1354.408c-0.063-0.063-6.197-6.411-11.218-14.431
				c-6.856-10.952-8.487-19.649-4.848-25.852c1.365-2.327,3.015-3.389,4.889-3.187c3.772,0.429,8.011,6.167,12.955,17.543
				c1.411,3.247,2.669,6.491,3.673,9.23c-1.171-12.404-2.434-36.392,4.211-44.498c1.453-1.774,3.225-2.737,5.264-2.861
				c1.993-0.116,3.631,0.594,4.87,2.123c6.002,7.407,0.714,33.586-2.288,46.146c2.219-3.566,5.303-7.427,8.457-7.883
				c1.54-0.216,2.772,0.355,3.468,1.623c1.979,3.606-0.693,12.824-8.591,22.009l-1.275-1.098c7.736-8.996,9.845-17.455,8.392-20.102
				c-0.222-0.405-0.645-0.93-1.753-0.767c-4.12,0.594-8.946,9.654-10.457,13.097l-1.582-0.563c0.029-0.107,2.965-10.788,4.93-22.474
				c2.567-15.267,2.358-25.271-0.606-28.93c-0.891-1.099-2.028-1.594-3.461-1.502c-1.575,0.095-2.905,0.83-4.065,2.247
				c-8.458,10.321-3.049,50.363-2.993,50.767l-1.636,0.368c-2.794-8.883-11.423-32.093-17.701-32.805
				c-1.172-0.134-2.235,0.641-3.247,2.366c-7.943,13.535,15.582,38.013,15.82,38.259L1151.416,1354.408z"/>
		</g>
	</g>
	<g>
		<g>
			<path style="fill:#4F3153;" d="M2379.771,1406.316c0,0-36.864-37.949-24.181-59.563c12.686-21.613,34.09,46.429,34.09,46.429
				s-11.099-80.457,11.893-81.854c22.99-1.398,0,81.854,0,81.854s8.521-19.412,16.846-20.612c8.324-1.201,5.945,16.46-8.919,33.746
				H2379.771z"/>
		</g>
		<g>
			<path style="fill:#2F1A31;" d="M2382.335,1407.323c-0.106-0.108-10.66-11.03-19.297-24.825
				c-11.795-18.841-14.6-33.803-8.339-44.473c2.349-4.003,5.179-5.848,8.409-5.48c10.702,1.215,22.384,28.871,28.589,45.874
				c-2.011-21.392-4.137-62.459,7.26-76.365c2.501-3.053,5.547-4.707,9.056-4.921c3.42-0.213,6.246,1.02,8.378,3.651
				c10.326,12.741,1.228,57.775-3.936,79.383c3.816-6.136,9.121-12.777,14.547-13.56c2.651-0.386,4.77,0.609,5.967,2.791
				c3.405,6.204-1.192,22.062-14.779,37.86l-2.193-1.887c13.308-15.477,16.936-30.027,14.436-34.581
				c-0.383-0.698-1.116-1.596-3.016-1.318c-7.094,1.021-15.392,16.609-17.99,22.528l-2.721-0.968
				c0.052-0.183,5.1-18.559,8.48-38.659c4.418-26.265,4.057-43.475-1.043-49.769c-1.531-1.888-3.479-2.736-5.953-2.584
				c-2.709,0.165-4.996,1.429-6.994,3.865c-14.547,17.753-5.245,86.642-5.148,87.335l-2.815,0.632
				c-4.808-15.281-19.65-55.208-30.449-56.432c-2.032-0.224-3.847,1.102-5.587,4.068c-13.672,23.296,26.805,65.394,27.215,65.817
				L2382.335,1407.323z"/>
		</g>
	</g>
	<g>
		<g>
			<path style="fill:#4F3153;" d="M1959.783,1466.538c0,0-30.537-31.437-20.029-49.339c10.507-17.904,28.238,38.46,28.238,38.46
				s-9.193-66.648,9.851-67.806c19.045-1.158,0,67.806,0,67.806s7.06-16.081,13.956-17.075c6.895-0.995,4.925,13.635-7.389,27.954
				H1959.783z"/>
		</g>
		<g>
			<path style="fill:#2F1A31;" d="M1961.907,1467.374c-1.44-1.483-35.132-36.551-22.892-57.405c1.945-3.315,4.291-4.842,6.965-4.54
				c5.377,0.61,11.416,8.787,18.462,25c2.011,4.626,3.804,9.25,5.235,13.153c-1.67-17.678-3.469-51.859,5.999-63.413
				c2.071-2.527,4.596-3.898,7.502-4.075c2.833-0.176,5.174,0.846,6.939,3.024c8.554,10.556,1.017,47.859-3.26,65.759
				c3.162-5.083,7.556-10.584,12.05-11.233c2.203-0.31,3.951,0.506,4.943,2.313c2.82,5.139-0.988,18.275-12.242,31.363l-1.818-1.563
				c11.025-12.821,14.029-24.874,11.959-28.646c-0.316-0.579-0.917-1.319-2.499-1.093c-5.876,0.848-12.749,13.759-14.901,18.662
				l-2.254-0.801c0.041-0.151,4.225-15.373,7.025-32.024c3.659-21.757,3.359-36.013-0.865-41.228
				c-1.268-1.564-2.885-2.268-4.932-2.14c-2.243,0.137-4.139,1.183-5.792,3.202c-12.052,14.704-4.345,71.771-4.267,72.346
				l-2.331,0.522c-3.982-12.658-16.278-45.732-25.225-46.746c-1.663-0.193-3.184,0.911-4.627,3.37
				c-11.32,19.288,22.204,54.172,22.544,54.521L1961.907,1467.374z"/>
		</g>
	</g>
	<g>
		<g>
			<path style="fill:#4F3153;" d="M2158.383,1372.623c0,0-23.309-23.994-15.287-37.661c8.019-13.666,21.554,29.356,21.554,29.356
				s-7.018-50.872,7.519-51.755c14.537-0.884,0,51.755,0,51.755s5.389-12.273,10.652-13.032c5.264-0.76,3.76,10.407-5.64,21.337
				H2158.383z"/>
		</g>
		<g>
			<path style="fill:#2F1A31;" d="M2160.005,1373.261c-1.099-1.132-26.815-27.898-17.474-43.817
				c1.486-2.531,3.282-3.702,5.316-3.465c4.104,0.466,8.713,6.707,14.092,19.082c1.535,3.531,2.903,7.061,3.996,10.039
				c-1.274-13.491-2.647-39.583,4.58-48.401c1.581-1.93,3.508-2.977,5.726-3.111c2.175-0.125,3.949,0.646,5.297,2.31
				c6.529,8.057,0.776,36.531-2.488,50.193c2.413-3.88,5.767-8.079,9.198-8.574c1.678-0.241,3.016,0.386,3.772,1.765
				c2.152,3.922-0.754,13.949-9.345,23.939l-1.387-1.193c8.414-9.786,10.707-18.986,9.128-21.865
				c-0.243-0.442-0.708-1.014-1.908-0.834c-4.484,0.647-9.73,10.502-11.374,14.244l-1.721-0.611
				c0.033-0.115,3.225-11.735,5.362-24.444c2.794-16.606,2.565-27.488-0.659-31.468c-0.969-1.194-2.201-1.727-3.765-1.634
				c-1.714,0.104-3.159,0.903-4.421,2.444c-9.199,11.224-3.317,54.782-3.257,55.221l-1.78,0.399
				c-3.039-9.662-12.424-34.907-19.252-35.682c-1.271-0.146-2.432,0.696-3.533,2.572c-8.641,14.723,16.949,41.35,17.209,41.616
				L2160.005,1373.261z"/>
		</g>
	</g>
	<g>
		<g>
			<path style="fill:#4F3153;" d="M1334.299,1488.986c0,0-23.31-23.994-15.289-37.66c8.021-13.665,21.555,29.357,21.555,29.357
				s-7.019-50.872,7.519-51.757c14.537-0.883,0,51.757,0,51.757s5.389-12.274,10.651-13.034c5.265-0.759,3.761,10.408-5.639,21.337
				H1334.299z"/>
		</g>
		<g>
			<path style="fill:#2F1A31;" d="M1335.92,1489.625c-1.099-1.133-26.815-27.898-17.474-43.817c1.484-2.531,3.271-3.696,5.317-3.465
				c4.103,0.465,8.713,6.708,14.091,19.082c1.534,3.531,2.902,7.061,3.996,10.04c-1.274-13.493-2.646-39.584,4.579-48.402
				c1.581-1.93,3.508-2.976,5.726-3.111c2.167-0.119,3.95,0.646,5.298,2.309c6.528,8.058,0.776,36.531-2.489,50.194
				c2.413-3.88,5.769-8.079,9.198-8.574c1.675-0.241,3.018,0.385,3.773,1.765c2.153,3.923-0.754,13.949-9.346,23.938l-1.387-1.192
				c8.416-9.786,10.708-18.986,9.128-21.865c-0.241-0.441-0.701-1.01-1.907-0.834c-4.484,0.646-9.73,10.502-11.375,14.244
				l-1.72-0.61c0.032-0.116,3.225-11.735,5.362-24.445c2.794-16.606,2.565-27.488-0.66-31.468c-0.969-1.195-2.209-1.73-3.764-1.634
				c-1.713,0.104-3.159,0.903-4.423,2.443c-9.198,11.226-3.315,54.783-3.256,55.222l-1.778,0.4
				c-3.041-9.663-12.426-34.908-19.254-35.683c-1.275-0.146-2.432,0.697-3.533,2.573c-8.639,14.722,16.95,41.348,17.209,41.614
				L1335.92,1489.625z"/>
		</g>
	</g>
	<g>
		<g>
			<path style="fill:#4F3153;" d="M1787.004,1488.986c0,0-23.309-23.994-15.289-37.66c8.021-13.665,21.555,29.357,21.555,29.357
				s-7.018-50.872,7.52-51.757c14.536-0.883,0,51.757,0,51.757s5.389-12.274,10.651-13.034c5.264-0.759,3.76,10.408-5.639,21.337
				H1787.004z"/>
		</g>
		<g>
			<path style="fill:#2F1A31;" d="M1788.626,1489.625c-1.1-1.133-26.816-27.898-17.474-43.817c1.484-2.53,3.271-3.692,5.316-3.465
				c4.104,0.465,8.713,6.708,14.092,19.082c1.535,3.531,2.902,7.061,3.996,10.04c-1.274-13.493-2.648-39.584,4.579-48.402
				c1.581-1.93,3.507-2.976,5.726-3.111c2.175-0.123,3.95,0.646,5.297,2.309c6.529,8.058,0.776,36.531-2.488,50.194
				c2.413-3.88,5.768-8.079,9.199-8.574c1.68-0.241,3.016,0.386,3.772,1.765c2.152,3.922-0.754,13.949-9.345,23.938l-1.388-1.192
				c8.415-9.786,10.708-18.987,9.129-21.865c-0.244-0.442-0.711-1.012-1.909-0.834c-4.484,0.646-9.73,10.502-11.374,14.244
				l-1.72-0.61c0.032-0.116,3.224-11.735,5.361-24.445c2.793-16.606,2.565-27.488-0.659-31.468
				c-0.969-1.194-2.201-1.731-3.765-1.634c-1.713,0.104-3.159,0.903-4.421,2.443c-9.199,11.226-3.316,54.783-3.256,55.222l-1.78,0.4
				c-3.039-9.663-12.425-34.908-19.254-35.683c-1.266-0.147-2.431,0.697-3.532,2.573c-8.644,14.729,16.95,41.348,17.21,41.614
				L1788.626,1489.625z"/>
		</g>
	</g>
	<g>
		<g>
			<path style="fill:#4F3153;" d="M1063.753,1485.137c0,0-23.31-23.994-15.289-37.66s21.555,29.356,21.555,29.356
				s-7.018-50.872,7.519-51.757c14.537-0.883,0,51.757,0,51.757s5.389-12.274,10.652-13.034c5.263-0.759,3.759,10.408-5.64,21.338
				H1063.753z"/>
		</g>
		<g>
			<path style="fill:#2F1A31;" d="M1065.374,1485.775c-1.1-1.133-26.816-27.899-17.475-43.818c1.485-2.531,3.27-3.704,5.317-3.464
				c4.104,0.465,8.713,6.706,14.092,19.081c1.535,3.531,2.903,7.062,3.996,10.04c-1.274-13.492-2.647-39.584,4.58-48.402
				c1.581-1.93,3.507-2.976,5.726-3.11c2.173-0.119,3.948,0.646,5.298,2.309c6.528,8.057,0.775,36.531-2.489,50.193
				c2.413-3.88,5.767-8.079,9.198-8.574c1.675-0.241,3.016,0.385,3.773,1.766c2.152,3.922-0.754,13.949-9.345,23.938l-1.388-1.193
				c8.415-9.785,10.708-18.985,9.127-21.865c-0.241-0.441-0.707-1.005-1.907-0.834c-4.484,0.646-9.731,10.503-11.374,14.244
				l-1.72-0.61c0.031-0.116,3.224-11.735,5.362-24.445c2.792-16.606,2.564-27.488-0.661-31.468
				c-0.968-1.194-2.201-1.727-3.764-1.633c-1.714,0.103-3.16,0.902-4.421,2.443c-9.201,11.228-3.317,54.782-3.257,55.221
				l-1.779,0.399c-3.04-9.662-12.426-34.906-19.254-35.681c-1.278-0.146-2.432,0.696-3.531,2.572
				c-8.646,14.729,16.948,41.349,17.207,41.615L1065.374,1485.775z"/>
		</g>
	</g>
	<g>
		<g>
			<path style="fill:#4F3153;" d="M401.023,1410.111c0,0-34.284-35.292-22.487-55.393c11.795-20.1,31.702,43.178,31.702,43.178
				s-10.321-74.823,11.06-76.122c21.381-1.3,0,76.122,0,76.122s7.926-18.053,15.667-19.169c7.741-1.116,5.529,15.308-8.294,31.384
				H401.023z"/>
		</g>
		<g>
			<path style="fill:#2F1A31;" d="M403.408,1411.049c-0.099-0.102-9.914-10.258-17.945-23.089
				c-10.969-17.521-13.579-31.437-7.756-41.357c2.186-3.724,4.822-5.429,7.82-5.097c6.036,0.685,12.815,9.865,20.727,28.066
				c2.257,5.193,4.27,10.385,5.877,14.766c-1.875-19.845-3.894-58.22,6.735-71.19c2.326-2.837,5.159-4.377,8.422-4.575
				c3.194-0.195,5.809,0.948,7.791,3.396c9.603,11.85,1.142,53.731-3.66,73.825c3.549-5.706,8.483-11.883,13.528-12.611
				c2.465-0.354,4.435,0.567,5.551,2.597c3.165,5.77-1.11,20.517-13.745,35.211l-2.041-1.756
				c12.377-14.393,15.75-27.925,13.426-32.16c-0.356-0.649-1.038-1.485-2.806-1.227c-6.597,0.951-14.313,15.446-16.73,20.951
				l-2.529-0.899c0.047-0.17,4.742-17.26,7.887-35.952c4.108-24.426,3.772-40.431-0.971-46.284c-1.424-1.758-3.24-2.543-5.537-2.403
				c-2.519,0.153-4.646,1.329-6.503,3.595c-13.532,16.514-4.878,80.574-4.789,81.22l-2.617,0.588
				c-4.471-14.211-18.274-51.342-28.318-52.481c-1.881-0.205-3.575,1.026-5.195,3.785c-12.714,21.664,24.928,60.815,25.31,61.208
				L403.408,1411.049z"/>
		</g>
	</g>
	<g>
		<g>
			<path style="fill:#624067;" d="M2343.01,347.009h-308.404c-10.28,0-18.612,8.332-18.612,18.612v54.558
				c0,30.92,25.065,55.987,55.986,55.987h271.03c10.278,0,18.611-8.333,18.611-18.612v-91.933
				C2361.621,355.342,2353.288,347.009,2343.01,347.009z"/>
		</g>
		<g style="opacity:0.3;">
			<path style="fill:#2F1A31;" d="M2043.58,445.166c-2.301,0-3.498,2.744-1.935,4.434c10.484,11.322,25.44,18.436,42.09,18.436
				h210.664c8.103,0,14.672-6.569,14.672-14.672v-5.561c0-1.456-1.181-2.637-2.637-2.637H2043.58z"/>
		</g>
		<g style="opacity:0.3;">
			<path style="fill:#2F1A31;" d="M2304.324,431.123h-269.938c-0.911,0-1.647-0.737-1.647-1.648s0.736-1.648,1.647-1.648h269.938
				c0.911,0,1.648,0.737,1.648,1.648S2305.235,431.123,2304.324,431.123z"/>
		</g>
		<g style="opacity:0.3;">
			<path style="fill:#2F1A31;" d="M2304.324,418.664h-269.938c-0.911,0-1.647-0.738-1.647-1.648c0-0.911,0.736-1.648,1.647-1.648
				h269.938c0.911,0,1.648,0.737,1.648,1.648C2305.973,417.926,2305.235,418.664,2304.324,418.664z"/>
		</g>
		<g style="opacity:0.3;">
			<path style="fill:#2F1A31;" d="M2304.325,358.875c0-2.785-2.258-5.043-5.042-5.043c-2.786,0-5.044,2.258-5.044,5.043
				c0,2.786,2.258,5.043,5.044,5.043C2302.067,363.918,2304.325,361.66,2304.325,358.875z"/>
		</g>
		<g style="opacity:0.3;">
			<path style="fill:#2F1A31;" d="M2284.747,358.875c0-2.785-2.258-5.043-5.043-5.043s-5.043,2.258-5.043,5.043
				c0,2.786,2.258,5.043,5.043,5.043S2284.747,361.66,2284.747,358.875z"/>
		</g>
	</g>
	<g>
		<g>
			<path style="fill:#E28569;" d="M1218.12,985.347c-23.359,15.093-37.605,31.116-49.73,54.589
				c-21.055,40.756,14.08,108.057,33.955,108.057c39.467,0,2.522-10.734,34.671-12.666l181.279,1.356
				c2.227-0.134,4.387-0.809,6.292-1.966l136.565-82.942c9.716-5.9,8.438-20.387-2.162-24.49
				c-53.647-20.763-176.015-66.524-221.816-70.283C1299.371,953.898,1249.979,964.763,1218.12,985.347z"/>
		</g>
		<g>
			<path style="fill:#F7B686;" d="M1224.159,1002.607c-13.399,19.404-32.584,24.112-54.492,34.72
				c3.234-7.96,5.813-14.583-4.726-20.772l-1.492-0.877l-5.969-3.502l-2.781-1.638l-9.491-5.573l-21.938-12.88l-1.992-1.164
				l-11.195-6.575l-3.859-2.261l-16.846-9.896l29.678,5.688l2.521,0.492l28.262,5.419c0,0,1.443,0.288,3.918,0.731
				c3.253,0.568,8.277,1.397,14.179,2.186c2.858,0.375,5.919,0.74,9.087,1.059c2.849,0.289,5.775,0.539,8.711,0.731
				c11.725,0.732,23.507,0.442,30.467-2.522C1225.862,981.854,1230.04,994.078,1224.159,1002.607z"/>
		</g>
		<g>
			<path style="fill:#436E8E;" d="M1223.869,1166.358c0,0-1.15-66.455,88.365-113.584c89.515-47.129-0.99-99.255,71.584-120.935
				c72.575-21.681,159.177,54.55,279.729,28.45c120.552-26.1,397.273-12.677,506.848,16.922
				c183.745,49.632,158.165,185.282,106.216,183.397c-72.274-2.625-124.032,92.388-169.095,90.462
				c-53.148-2.27-227.709-90.481-263.503-90.462c-109.169,0.056-28.354,255.182-204.229,260.064
				S1215.999,1331.086,1223.869,1166.358z"/>
		</g>
		<g>
			<path style="fill:#2F1A31;" d="M1242.195,1115.465c-10.265,23.168-28.107,37.73-39.851,32.527
				c-11.744-5.203-12.942-28.203-2.677-51.37c10.264-23.168,28.106-37.73,39.85-32.527S1252.46,1092.297,1242.195,1115.465z"/>
		</g>
		<g>
			<g>
				<g>
					<path style="fill:#F7B686;" d="M1623.539,1107.528L1623.539,1107.528c1.805,3.689,6.301,5.233,9.99,3.429l57.279-28.001
						c3.689-1.804,5.233-6.3,3.429-9.99l0,0c-1.804-3.69-6.3-5.233-9.989-3.429l-57.279,28.001
						C1623.279,1099.343,1621.735,1103.838,1623.539,1107.528z"/>
				</g>
				<g>
					<path style="fill:#F7B686;" d="M1615.143,1090.352L1615.143,1090.352c1.805,3.69,6.3,5.233,9.99,3.43l64.059-31.316
						c3.689-1.804,5.233-6.3,3.429-9.989l0,0c-1.804-3.69-6.3-5.233-9.989-3.43l-64.059,31.316
						C1614.882,1082.166,1613.339,1086.662,1615.143,1090.352z"/>
				</g>
				<g>
					<path style="fill:#F7B686;" d="M1579.547,1102.033l2.399,1.141c4.485,2.135,9.899,0.21,12.034-4.275l20.78-43.689
						c2.133-4.485,0.21-9.9-4.275-12.034l-2.4-1.141c-4.485-2.134-9.9-0.21-12.033,4.275l-20.781,43.69
						C1573.137,1094.484,1575.062,1099.899,1579.547,1102.033z"/>
				</g>
				<g>
					<path style="fill:#F7B686;" d="M1606.746,1073.176L1606.746,1073.176c1.804,3.69,6.299,5.233,9.988,3.429l51.35-25.102
						c3.689-1.805,5.233-6.3,3.43-9.99l0,0c-1.805-3.69-6.299-5.233-9.99-3.429l-51.349,25.102
						C1606.485,1064.99,1604.941,1069.485,1606.746,1073.176z"/>
				</g>
				<g>
					<path style="fill:#F7B686;" d="M1596.616,1135.131c0,0,42.558,3.254,63.033-19.117c7.086-7.742-19.023-57.627-30.782-57.616
						c-11.759,0.01-44.786,20.344-44.786,20.344L1596.616,1135.131z"/>
				</g>
				<g>
					<path style="fill:#F7B686;" d="M1631.828,1124.611L1631.828,1124.611c1.801,3.683,6.287,5.223,9.97,3.422l51.241-25.05
						c3.683-1.801,5.223-6.288,3.423-9.97l0,0c-1.8-3.683-6.286-5.224-9.969-3.423l-51.242,25.051
						C1631.568,1116.442,1630.028,1120.929,1631.828,1124.611z"/>
				</g>
			</g>
			<g>
				<g>
					<path style="fill:#F7B686;" d="M1586.206,1066.409c-81.925,15.065-200.805,30.331-301.917,17.498
						c-23.428-2.973-32.327-4.452-45.696-8.141c-10.758-2.969-28.229,12.609-33.508,30.961c-4.953,17.22,2.518,35.675,14.753,41.67
						c9.137,4.478,19.452,6.883,45.509,10.619c90.529,12.987,200.603,5.169,337.261-23.722L1586.206,1066.409z"/>
				</g>
			</g>
		</g>
		<g>
			<path style="fill:#060633;" d="M1185.732,988.495c-4.264,18.193-20.791,28.06-20.791,28.06l-1.492-0.877l-5.969-3.502
				l10.454-25.471c2.858,0.375,5.292,0.299,8.458,0.615C1179.242,987.609,1182.797,988.303,1185.732,988.495z"/>
		</g>
		<g>
			<g>
				<path style="fill:#56335B;" d="M1078.037,918.894c0,0,15.464-0.383,32.842,7.707c17.377,8.09-31.892,16.135-31.892,16.135
					L1078.037,918.894z"/>
			</g>
			<g>
				<path style="fill:#F7B686;" d="M1177.117,986.916c-0.029,0.28-0.058,0.568-0.096,0.848
					c-1.271,10.666-6.151,20.214-13.572,27.914c-0.588,0.617-1.194,1.224-1.82,1.811c-7.768,7.364-17.952,12.841-29.474,15.681v0.01
					h-0.01c-0.01,0-0.03,0-0.039,0.009c-3.312,0.818-6.738,1.415-10.251,1.781c-3.581,0.375-7.259,0.5-11.002,0.365
					c-1.705-0.058-3.418-0.172-5.151-0.346c-4.813-0.481-9.452-1.387-13.89-2.647c-1.607-0.462-3.195-0.962-4.745-1.521
					c-1.839-0.654-3.629-1.376-5.381-2.147c-23.525-10.491-38.744-31.929-36.435-54.973c1.733-17.269,12.919-31.698,28.994-40.197
					c1.396-0.741,2.83-1.444,4.292-2.089c1.868-0.828,3.794-1.579,5.776-2.243c7.258-2.474,15.18-3.851,23.448-3.937
					c2.926-0.039,5.901,0.096,8.903,0.395c32.411,3.253,57.399,25.335,60.384,51.44
					C1177.416,980.303,1177.454,983.596,1177.117,986.916z"/>
			</g>
			<g>
				<path style="fill:#2F1A31;" d="M1086.921,1031.987l3.389-26.526c0.746-5.832-1.091-11.759-5.191-15.973
					c-7.06-7.252-9.826-14.64-3.251-38.584c8.326-30.318-5.172-54.796-20.402-61.855c-15.543-7.205-30.29,5.85-26.105,23.041
					c4.184,17.192-13.371,6.115-18.864,20.414c-10.267,26.719,9.802,36.884,3.807,59.325c-7.861,29.425,2.203,87.798,60.283,74.861
					L1086.921,1031.987z"/>
			</g>
			<g>
				<g>
					<path style="fill:#060633;" d="M1109.142,976.858c-0.11-0.319-0.363-0.585-0.71-0.697c-0.584-0.188-1.212,0.13-1.402,0.715
						c-0.111,0.344-3.451,8.084,4.183,14.169c0.48,0.385,1.176,0.329,1.569-0.146c0.392-0.474,0.232-1.082-0.146-1.569
						c-3.776-4.871-3.576-11.479-3.484-11.768C1109.227,977.325,1109.218,977.078,1109.142,976.858z"/>
				</g>
			</g>
			<g>
				<g>
					<path style="fill:#060633;" d="M1121.135,991.92c0.069,0.33,0.288,0.626,0.616,0.781c0.557,0.26,1.219,0.023,1.481-0.532
						c0.154-0.327,4.444-7.585-2.362-14.585c-0.429-0.44-1.126-0.473-1.575-0.053c-0.449,0.421-0.366,1.045-0.053,1.576
						c3.132,5.309,2.1,11.84,1.974,12.111C1121.109,991.446,1121.087,991.691,1121.135,991.92z"/>
				</g>
			</g>
			<g>
				<g>
					<path style="fill:#060633;" d="M1123.256,953.583c-0.075,0.329,0,0.688,0.234,0.968c0.396,0.47,1.096,0.531,1.566,0.136
						c0.277-0.232,7.212-5.027,3.96-14.232c-0.204-0.581-0.823-0.901-1.407-0.708s-0.771,0.795-0.708,1.408
						c0.622,6.132-3.05,11.632-3.277,11.826C1123.432,953.143,1123.309,953.356,1123.256,953.583z"/>
				</g>
			</g>
			<g>
				<g>
					<path style="fill:#060633;" d="M1115.337,935.981c0.014-0.262-0.124-0.527-0.403-0.714c-0.474-0.313-1.173-0.279-1.565,0.078
						c-0.231,0.21-6.188,4.685-1.339,11.352c0.306,0.42,0.972,0.594,1.512,0.378c0.539-0.216,0.614-0.698,0.442-1.159
						c-1.712-4.621,0.909-9.256,1.1-9.432C1115.243,936.339,1115.326,936.161,1115.337,935.981z"/>
				</g>
			</g>
			<g>
				<path style="fill:#56335B;" d="M1080.585,1066.69c0,0,42.787-8.825,51.569-33.521c0,0-34.223,13.605-42.005-33.821
					C1090.149,999.348,1074.595,1037.566,1080.585,1066.69z"/>
			</g>
			<g>
				<path style="fill:#F7B686;" d="M1110.271,1035.937c4.724-4.614,5.21-11.777,1.087-15.998c-4.124-4.221-11.295-3.901-16.02,0.712
					c-4.723,4.614-5.21,11.776-1.087,15.997C1098.376,1040.869,1105.547,1040.551,1110.271,1035.937z"/>
			</g>
			<g>
				<path style="fill:#2F1A31;" d="M1023.688,921.925c-0.425,0-0.685-0.033-0.698-0.035l0.21-1.484l-0.104,0.742l0.102-0.743
					c0.243,0.032,6.035,0.725,7.471-6.37l1.47,0.299C1030.734,921.271,1025.577,921.925,1023.688,921.925z"/>
			</g>
			<g>
				<path style="fill:#FFFFFF;" d="M1074.578,940.266c-0.018-0.352-2.03-35.161-18.471-40.441c-4.648-1.492-7.98-1.439-10.184,0.168
					c-3.533,2.572-3.541,8.768-3.548,14.232c-0.002,0.841-0.003,1.662-0.016,2.449l-0.75-0.015c0.014-0.781,0.015-1.599,0.016-2.435
					c0.007-5.645,0.016-12.042,3.857-14.839c2.411-1.757,5.96-1.847,10.854-0.274c7.027,2.257,12.54,10.101,15.941,22.68
					c2.553,9.446,3.043,18.346,3.047,18.435L1074.578,940.266z"/>
			</g>
			<g>
				<path style="fill:#FFFFFF;" d="M1023.34,1005.956l-0.699-0.268c11.761-30.778-2.512-50.256-2.657-50.449l0.599-0.451
					C1020.729,954.985,1035.248,974.795,1023.34,1005.956z"/>
			</g>
			<g>
				<path style="fill:#2F1A31;" d="M1153.159,986.065c-0.147,0-0.295-0.047-0.423-0.141c-0.314-0.233-0.379-0.678-0.146-0.992
					c8.886-11.944,1.694-22.721,1.384-23.174c-0.221-0.322-0.139-0.764,0.184-0.986c0.321-0.222,0.763-0.141,0.985,0.182
					c0.082,0.12,8.09,12.049-1.415,24.825C1153.59,985.965,1153.376,986.065,1153.159,986.065z"/>
			</g>
		</g>
		<g style="opacity:0.5;">
			<path style="fill:#E08B65;" d="M1382.688,1153.71c-9.678,0-17.258-5.3-17.258-12.066c0-6.765,7.58-12.065,17.258-12.065
				c9.677,0,17.258,5.301,17.258,12.065C1399.945,1148.41,1392.364,1153.71,1382.688,1153.71z M1382.688,1133.933
				c-6.994,0-12.903,3.531-12.903,7.711c0,4.181,5.909,7.712,12.903,7.712s12.904-3.531,12.904-7.712
				C1395.592,1137.464,1389.682,1133.933,1382.688,1133.933z"/>
		</g>
	</g>
	<g>
		<g>
			<g>
				<path style="fill:#2F1A31;" d="M473.779,1152.163h230.907v250.766h-191.49c-7.653,0-14.067-5.784-14.855-13.397
					L473.779,1152.163z"/>
			</g>
			<g>
				<path style="fill:#5D3D63;" d="M587.083,1152.163h236.77l-9.873,238.198c-0.291,7.023-6.07,12.567-13.101,12.567H603.003
					c-8.793,0-15.92-7.127-15.92-15.918V1152.163z"/>
			</g>
			<g>
				<path style="fill:#3F2542;" d="M478.969,1133.647h341.586c6.673,0,12.457,4.618,13.935,11.124l1.22,5.369
					c1.212,5.327-2.797,10.414-8.259,10.482l-348.482,4.372V1133.647z"/>
			</g>
			<g style="opacity:0.5;">
				<path style="fill:#2F1A31;" d="M623.465,1365.532h160.898c4.903,0,8.987-3.798,9.39-8.733l5.271-64.653
					c0.452-5.544-3.881-10.294-9.391-10.294H623.465c-5.203,0-9.422,4.259-9.422,9.513v64.653
					C614.043,1361.273,618.262,1365.532,623.465,1365.532z"/>
			</g>
			<g style="opacity:0.5;">
				<path style="fill:#2F1A31;" d="M623.465,1263.011h160.898c4.903,0,8.987-3.799,9.39-8.732l5.271-64.653
					c0.452-5.544-3.881-10.295-9.391-10.295H623.465c-5.203,0-9.422,4.259-9.422,9.514v64.653
					C614.043,1258.751,618.262,1263.011,623.465,1263.011z"/>
			</g>
			<g>
				<path style="fill:#321D35;" d="M581.028,1144.885v18.83l-119.136,1.165c-6.463,0.063-11.736-5.159-11.736-11.622v-7.16
					c0-6.875,5.574-12.45,12.451-12.45h107.184C575.997,1133.647,581.028,1138.679,581.028,1144.885z"/>
			</g>
			<g>
				<g>
					<path style="fill:#2F1A31;" d="M775.065,1402.927l2.669,12.444c0.852,6.529,5.765,6.571,8.007,6.529
						c3.534-0.056,6.08-6.153,5.186-11.779l-1.114-7.194H775.065z"/>
				</g>
			</g>
			<g>
				<g>
					<path style="fill:#2F1A31;" d="M622.063,1402.927l-2.668,12.444c-0.854,6.529-5.765,6.571-8.007,6.529
						c-3.535-0.056-6.081-6.153-5.186-11.779l1.113-7.194H622.063z"/>
				</g>
			</g>
			<g>
				<g>
					<path style="fill:#2F1A31;" d="M527.906,1402.927l-2.668,12.444c-0.853,6.529-5.765,6.571-8.007,6.529
						c-3.535-0.056-6.08-6.153-5.187-11.779l1.115-7.194H527.906z"/>
				</g>
			</g>
			<g>
				<g>
					<g>
						<path style="fill:#2F1A31;" d="M698.896,1193.87c0-4.542,4.442-7.255,8.74-7.255c3.909,0,6.966,3.022,7.976,7.887l0,0
							c0.415,1.999,0.006,3.838-1.182,5.314c-1.463,1.816-4.066,2.946-6.794,2.946
							C702.165,1202.763,698.896,1198.24,698.896,1193.87z M713.857,1194.873c-0.314-1.513-1.689-6.447-6.221-6.447
							c-3.415,0-6.947,2.037-6.947,5.444c0,3.48,2.599,7.081,6.947,7.081c2.201,0,4.27-0.872,5.4-2.276
							C713.885,1197.62,714.161,1196.342,713.857,1194.873L713.857,1194.873z"/>
					</g>
				</g>
				<g>
					<g>
						<path style="fill:#2F1A31;" d="M707.333,1212.373L707.333,1212.373c1.203,0,2.189-0.984,2.189-2.189v-8.558
							c0-1.204-0.986-2.188-2.189-2.188l0,0c-1.204,0-2.189,0.984-2.189,2.188v8.558
							C705.144,1211.389,706.129,1212.373,707.333,1212.373z"/>
					</g>
				</g>
			</g>
			<g>
				<g>
					<g>
						<path style="fill:#2F1A31;" d="M698.896,1298.945c0-4.541,4.442-7.255,8.74-7.255c3.91,0,6.966,3.022,7.976,7.889l0,0
							c0.415,1.999,0.006,3.836-1.182,5.313c-1.463,1.816-4.066,2.945-6.794,2.945
							C702.165,1307.838,698.896,1303.316,698.896,1298.945z M713.857,1299.95c-0.314-1.513-1.689-6.449-6.221-6.449
							c-3.415,0-6.947,2.037-6.947,5.444c0,3.481,2.599,7.082,6.947,7.082c2.201,0,4.271-0.873,5.4-2.277
							C713.885,1302.696,714.161,1301.417,713.857,1299.95L713.857,1299.95z"/>
					</g>
				</g>
				<g>
					<g>
						<path style="fill:#2F1A31;" d="M707.333,1317.449L707.333,1317.449c1.203,0,2.189-0.984,2.189-2.188v-8.558
							c0-1.205-0.986-2.189-2.189-2.189l0,0c-1.204,0-2.189,0.984-2.189,2.189v8.558
							C705.144,1316.465,706.129,1317.449,707.333,1317.449z"/>
					</g>
				</g>
			</g>
		</g>
		<g style="opacity:0.4;">
			<g>
				<path style="fill:#E28569;" d="M535.048,1061.975l66.505-2.244l75.37,1.977l0.19,5.731l-72.903-3.277
					c-7.326,0.247-13.049,7.019-12.781,15.123l0,0c0.269,8.104,6.426,14.474,13.753,14.227l72.713-2.454l0.14,4.233l-141.726,4.783
					c-9.512,0.32-17.504-7.948-17.852-18.469l0,0C518.109,1071.084,525.536,1062.295,535.048,1061.975z"/>
			</g>
			<g>
				<path style="fill:#E28569;" d="M584.962,1079.36L584.962,1079.36c-0.349-10.52,7.08-19.31,16.591-19.63l75.37,1.977l0.19,5.731
					l-72.903-3.277c-7.326,0.247-13.049,7.019-12.781,15.123l0,0c0.269,8.104,6.426,14.474,13.753,14.227l72.713-2.454l0.14,4.233
					l-75.221,2.538C593.302,1098.149,585.31,1089.881,584.962,1079.36z"/>
			</g>
			<g>
				<path style="fill:#E6EDFF;" d="M604.211,1064.177l72.902,3.262l0,0c-6.578,1.063-8.565,7.811-9.478,11.411
					c-1.851,7.299,3.623,11.506,10.256,12.123l0.004,0.1l-72.714,2.454c-7.326,0.248-13.483-6.122-13.752-14.228l0,0
					C591.161,1071.194,596.884,1064.424,604.211,1064.177z"/>
			</g>
			<g>
				
					<rect x="608.65" y="1083.19" transform="matrix(0.9993 -0.0366 0.0366 0.9993 -39.2479 24.092)" style="fill:#2F1A31;" width="58.723" height="0.399"/>
			</g>
			<g style="opacity:0.4;">
				<g>
					<path style="fill:#436E8E;" d="M592.019,1096.031c0.256,0,0.506-0.126,0.66-0.357c0.242-0.367,0.143-0.864-0.219-1.11
						c-0.059-0.039-5.788-4.053-6.709-15.27c-0.916-11.144,6.821-15.419,6.9-15.46c0.388-0.208,0.534-0.693,0.33-1.083
						c-0.207-0.393-0.686-0.537-1.072-0.333c-0.358,0.191-8.74,4.822-7.739,17.009c0.99,12.048,7.15,16.296,7.412,16.472
						C591.717,1095.988,591.869,1096.031,592.019,1096.031z"/>
				</g>
			</g>
			<g>
				<polygon style="fill:#2F1A31;" points="667.634,1079.049 622.549,1078.291 622.555,1077.893 667.64,1078.649 				"/>
			</g>
			<g style="opacity:0.4;">
				<g>
					<path style="fill:#436E8E;" d="M567.957,1091.782c-0.093-0.11-9.225-11.16-0.786-23.337c0.143-0.207,0.374-0.332,0.623-0.342
						l13.486-0.454c0.324,0.015,0.575,0.148,0.719,0.41c0.145,0.262,0.133,0.584-0.032,0.834c-0.038,0.058-3.785,5.835-2.412,11.387
						c1.427,5.768,3.881,10.057,3.907,10.1c0.14,0.242,0.143,0.543,0.008,0.79c-0.136,0.246-0.39,0.404-0.668,0.414l-14.215,0.479
						c-0.009,0-0.018,0.001-0.027,0.001C568.329,1092.063,568.108,1091.96,567.957,1091.782z M578.016,1080.668
						c-1.142-4.614,0.758-9.197,1.889-11.37l-11.657,0.394c-6.725,10.083-0.65,19.012,0.683,20.757l12.544-0.423
						C580.618,1088.328,579.066,1084.915,578.016,1080.668z"/>
				</g>
			</g>
		</g>
		<g style="opacity:0.4;">
			<g>
				<path style="fill:#436E8E;" d="M676.369,1095.672h-66.542l-75.264,4.518v5.735l72.753-5.735c7.332,0,13.273,6.574,13.273,14.684
					l0,0c0,8.109-5.941,14.683-13.273,14.683h-72.753v4.235h141.806c9.516,0,17.231-8.532,17.231-19.06l0,0
					C693.6,1104.206,685.885,1095.672,676.369,1095.672z"/>
			</g>
			<g>
				<path style="fill:#436E8E;" d="M627.058,1114.731L627.058,1114.731c0-10.525-7.714-19.06-17.23-19.06l-75.264,4.518v5.735
					l72.753-5.735c7.332,0,13.273,6.574,13.273,14.684l0,0c0,8.109-5.941,14.683-13.273,14.683h-72.753v4.235h75.264
					C619.344,1133.791,627.058,1125.259,627.058,1114.731z"/>
			</g>
			<g>
				<path style="fill:#E6EDFF;" d="M607.316,1100.206l-72.753,5.719l0,0c6.608,0.84,8.817,7.517,9.849,11.084
					c2.091,7.233-3.24,11.622-9.849,12.463v0.1h72.753c7.332,0,13.273-6.573,13.273-14.683l0,0
					C620.59,1106.779,614.648,1100.206,607.316,1100.206z"/>
			</g>
			<g>
				<rect x="544.809" y="1120.348" style="fill:#2F1A31;" width="58.724" height="0.399"/>
			</g>
			<g>
				<path style="fill:#2F1A31;" d="M620.993,1131.479l-0.931-1.295c0.055-0.04,5.648-4.246,6.199-15.49
					c0.546-11.174-7.33-15.187-7.409-15.226l0.704-1.431c0.364,0.179,8.895,4.526,8.298,16.733
					C627.264,1126.842,621.249,1131.295,620.993,1131.479z"/>
			</g>
			<g>
				<polygon style="fill:#2F1A31;" points="544.423,1117.208 544.402,1116.809 589.436,1114.532 589.456,1114.932 				"/>
			</g>
			<g>
				<path style="fill:#2F1A31;" d="M643.844,1103.703H630.35c0,0,4.194,5.929,2.918,11.934c-1.276,6.005-3.648,10.438-3.648,10.438
					h14.224C643.844,1126.074,652.413,1115.229,643.844,1103.703z"/>
			</g>
		</g>
	</g>
	<g>
		<path style="fill:#FFFFFF;" d="M1171.171,792.45c13.908,0,25.225,11.315,25.225,25.225c0,13.91-11.316,25.225-25.225,25.225
			c-13.909,0-25.226-11.314-25.226-25.225C1145.945,803.766,1157.262,792.45,1171.171,792.45L1171.171,792.45z M1171.171,789.371
			c-15.633,0-28.305,12.672-28.305,28.304s12.672,28.305,28.305,28.305c15.632,0,28.305-12.673,28.305-28.305
			S1186.803,789.371,1171.171,789.371L1171.171,789.371z"/>
	</g>
	<g>
		<path style="fill:#FFFFFF;" d="M1130.635,876.319c-6.996,0-12.688-5.691-12.688-12.688c0-6.996,5.691-12.688,12.688-12.688
			s12.688,5.691,12.688,12.688C1143.323,870.628,1137.631,876.319,1130.635,876.319z M1130.635,852.135
			c-6.339,0-11.498,5.158-11.498,11.497c0,6.34,5.159,11.498,11.498,11.498c6.34,0,11.498-5.158,11.498-11.498
			C1142.133,857.293,1136.975,852.135,1130.635,852.135z"/>
	</g>
	<g>
		<g>
			<path style="fill:#FFFFFF;" d="M1599.103,181.849c32.377,0.001,63.033,6.536,91.114,19.422
				c22.489,10.32,43.404,24.719,62.166,42.798c32.043,30.877,46.876,62.2,47.021,62.512c0.55,1.18,1.732,1.935,3.035,1.935h0.091
				h0.086c43.083,0,76.338,12.583,98.844,37.402c19.981,22.035,27.753,49.938,30.756,69.466c3.278,21.33,1.745,37.618,1.729,37.779
				c-0.133,1.343,0.554,2.635,1.741,3.275c14.846,8.015,36.701,27.827,49.436,57.291c9.581,22.164,16.807,56.797-3.174,95.928
				c-28.382,55.579-86.693,61.579-110.447,61.579c-5.697,0-9.156-0.358-9.188-0.362c-0.119-0.013-0.237-0.018-0.356-0.018
				c-0.979,0-1.915,0.43-2.556,1.185c-16.886,19.954-38.669,29.683-53.97,34.329c-16.709,5.075-29.57,5.378-29.695,5.38
				c-1.446,0.025-2.713,0.979-3.141,2.359c-0.061,0.196-6.26,19.812-23.751,41.013c-10.235,12.408-22.288,22.933-35.823,31.285
				c-16.92,10.438-36.238,17.502-57.419,20.994c-11.663,1.923-23.054,2.898-33.858,2.898c-35.068,0-59.117-10.307-73.115-18.953
				c-15.17-9.37-22.157-18.872-22.222-18.962c-0.631-0.876-1.644-1.393-2.718-1.393c-0.033,0-0.066,0-0.101,0.001
				c-1.112,0.033-2.135,0.617-2.729,1.558c-0.083,0.13-8.479,13.184-28.915,26.29c-12.097,7.759-25.916,13.944-41.075,18.387
				c-19.025,5.575-40.223,8.402-63.002,8.402c-26.051,0-54.566-3.708-84.753-11.021c-58.072-14.065-95.79-38.244-112.106-71.864
				c-9.813-20.222-9.729-40.155-7.931-53.316c1.968-14.385,6.354-24.078,6.396-24.171c0.632-1.371,0.268-2.994-0.889-3.965
				c-19.753-16.583-29.431-34.3-28.766-52.661c1.172-32.355,34.201-56.6,34.532-56.839c0.766-0.552,1.263-1.401,1.369-2.339
				c0.106-0.938-0.188-1.877-0.812-2.586c-0.166-0.189-16.698-19.241-24.943-47.822c-4.822-16.714-5.873-33.337-3.123-49.407
				c3.444-20.12,12.902-39.487,28.112-57.563c16.169-19.215,36.696-33.357,61.012-42.031c19.131-6.825,40.56-10.286,63.688-10.286
				c33.681,0,59.352,7.487,59.605,7.563c0.313,0.092,0.634,0.138,0.952,0.138c0.62,0,1.235-0.172,1.772-0.507
				c0.813-0.506,1.369-1.338,1.529-2.283c0.061-0.356,6.327-36.08,32.423-73.719c15.318-22.093,34.362-40.457,56.601-54.582
				c27.84-17.681,60.823-28.751,98.04-32.902C1580.199,182.392,1589.797,181.848,1599.103,181.849L1599.103,181.849z
				 M1599.103,178.5c-9.281,0-18.905,0.523-28.898,1.638C1404.807,198.585,1380.21,344.11,1380.21,344.11
				s-25.938-7.701-60.558-7.702c-39.672,0-90.744,10.111-127.262,53.509c-68.386,81.271,0,159.156,0,159.156
				s-76.763,55.342-5.961,114.781c0,0-52.178,113.297,115.895,154.007c32.703,7.921,61.076,11.113,85.541,11.113
				c101.267,0,135.821-54.638,135.821-54.638s28.265,39.309,98.056,39.309c10.514,0,21.958-0.892,34.402-2.943
				c95.053-15.67,119.648-95.606,119.648-95.606s52.345-0.929,86.162-40.895c0,0,3.563,0.382,9.545,0.382
				c23.436,0,84.039-5.852,113.429-63.405c36.892-72.246-12.298-138.601-47.652-157.688c0,0,14.673-148.324-134.66-148.324
				c-0.063,0-0.113,0-0.177,0C1802.439,305.167,1743.424,178.506,1599.103,178.5L1599.103,178.5z"/>
		</g>
		<g>
			<path style="fill:#FFFFFF;" d="M1351.137,475.178l10.518-80.424l5.24,78.428c0.307,4.575,3.916,8.235,8.486,8.602l56.465,4.539
				l-56.099,10.494c-5.243,0.98-9.263,5.219-9.963,10.506l-6.886,51.948l-7.974-51.535c-0.898-5.809-5.606-10.278-11.453-10.876
				l-121.796-12.44l124.53-1.319C1346.742,483.052,1350.549,479.674,1351.137,475.178z"/>
		</g>
		<g>
			<path style="fill:#FFFFFF;" d="M1581.804,305.795l2.914-22.291l1.454,21.737c0.084,1.269,1.085,2.283,2.352,2.385l15.65,1.258
				l-15.55,2.908c-1.452,0.272-2.566,1.447-2.761,2.912l-1.909,14.398l-2.209-14.284c-0.249-1.61-1.555-2.849-3.175-3.015
				l-33.758-3.448l34.516-0.366C1580.585,307.977,1581.641,307.041,1581.804,305.795z"/>
		</g>
		<g>
			<path style="fill:#FFFFFF;" d="M1702.146,626.885l-8.567-55.374c-0.859-5.557-5.365-9.835-10.958-10.407l-81.721-12.442
				l0.076-1.109l84.428-1.319c4.233-0.045,7.837-3.243,8.385-7.438l10.518-80.424l1.11,0.035l5.241,78.428
				c0.285,4.267,3.713,7.74,7.974,8.083l60.637,4.874l-60.213,11.263c-5.019,0.938-8.842,4.97-9.513,10.031L1702.146,626.885z
				 M1607.67,548.563l75.092,11.434c6.07,0.619,10.983,5.285,11.921,11.343l7.38,47.694l6.374-48.095
				c0.735-5.542,4.92-9.955,10.415-10.983l51.984-9.725l-52.294-4.203c-4.808-0.387-8.676-4.308-8.998-9.12l-4.864-72.787
				l-9.783,74.816c-0.62,4.744-4.694,8.358-9.478,8.409L1607.67,548.563z"/>
		</g>
		<g>
			<path style="fill:#FFFFFF;" d="M1810.407,462.368l-3.446-22.279c-0.282-1.827-1.765-3.234-3.604-3.422l-29.258-4.455l0.074-1.109
				l30.209-0.473c1.34-0.014,2.479-1.023,2.651-2.349l3.763-28.777l1.111,0.035l1.875,28.063c0.09,1.35,1.176,2.451,2.525,2.56
				l24.375,1.959l-24.187,4.524c-1.644,0.307-2.895,1.627-3.114,3.284L1810.407,462.368z M1780.868,432.114l22.629,3.445
				c2.317,0.236,4.207,2.03,4.567,4.358l2.259,14.601l1.953-14.736c0.282-2.137,1.897-3.839,4.016-4.235l15.959-2.984l-16.032-1.289
				c-1.896-0.152-3.422-1.699-3.549-3.597l-1.499-22.422l-3.029,23.171c-0.245,1.873-1.854,3.301-3.743,3.32L1780.868,432.114z"/>
		</g>
		<g>
			<path style="fill:#FFFFFF;" d="M1564.033,392.979c0-3.644,2.953-6.597,6.598-6.597c3.643,0,6.597,2.953,6.597,6.597
				c0,3.644-2.954,6.597-6.597,6.597C1566.986,399.576,1564.033,396.623,1564.033,392.979z"/>
		</g>
		<g>
			<path style="fill:#FFFFFF;" d="M1681.421,392.979c0-3.644,2.954-6.597,6.598-6.597s6.597,2.953,6.597,6.597
				c0,3.644-2.953,6.597-6.597,6.597S1681.421,396.623,1681.421,392.979z"/>
		</g>
		<g>
			<path style="fill:#FFFFFF;" d="M1863.504,762.942c0-3.644,2.953-6.598,6.598-6.598c3.643,0,6.597,2.953,6.597,6.598
				c0,3.643-2.954,6.598-6.597,6.598C1866.457,769.54,1863.504,766.586,1863.504,762.942z"/>
		</g>
		<g>
			<path style="fill:#FFFFFF;" d="M1284.115,386.382c0-3.644,2.954-6.598,6.598-6.598c3.643,0,6.597,2.954,6.597,6.598
				c0,3.644-2.954,6.597-6.597,6.597C1287.069,392.979,1284.115,390.025,1284.115,386.382z"/>
		</g>
		<g>
			<path style="fill:#FFFFFF;" d="M1633.284,454.452c0-1.822,1.477-3.3,3.298-3.3c1.822,0,3.299,1.478,3.299,3.3
				c0,1.821-1.477,3.298-3.299,3.298C1634.761,457.75,1633.284,456.273,1633.284,454.452z"/>
		</g>
		<g>
			<path style="fill:#FFFFFF;" d="M1855.042,798.17c0-1.822,1.477-3.299,3.299-3.299c1.821,0,3.298,1.477,3.298,3.299
				c0,1.821-1.477,3.299-3.298,3.299C1856.519,801.469,1855.042,799.991,1855.042,798.17z"/>
		</g>
		<g>
			<path style="fill:#FFFFFF;" d="M1425.249,527.448c0-1.821,1.477-3.298,3.299-3.298c1.821,0,3.298,1.477,3.298,3.298
				c0,1.822-1.477,3.298-3.298,3.298C1426.726,530.746,1425.249,529.271,1425.249,527.448z"/>
		</g>
		<g>
			<path style="fill:#FFFFFF;" d="M1844.214,621.567c0-1.821,1.476-3.299,3.298-3.299s3.299,1.477,3.299,3.299
				c0,1.82-1.477,3.298-3.299,3.298S1844.214,623.388,1844.214,621.567z"/>
		</g>
		<g>
			<path style="fill:#FFFFFF;" d="M1262.763,611.671c0-1.822,1.478-3.299,3.298-3.299c1.822,0,3.299,1.477,3.299,3.299
				c0,1.821-1.477,3.299-3.299,3.299C1264.24,614.97,1262.763,613.492,1262.763,611.671z"/>
		</g>
		<g>
			<path style="fill:#FFFFFF;" d="M1076.72,500.44c0-1.822,1.477-3.299,3.298-3.299s3.299,1.477,3.299,3.299
				c0,1.821-1.478,3.298-3.299,3.298S1076.72,502.261,1076.72,500.44z"/>
		</g>
		<g>
			<path style="fill:#FFFFFF;" d="M1321.462,254.068c0-1.822,1.478-3.299,3.299-3.299s3.299,1.477,3.299,3.299
				c0,1.821-1.478,3.298-3.299,3.298S1321.462,255.889,1321.462,254.068z"/>
		</g>
		<g>
			<circle style="fill:#FFFFFF;" cx="1588.692" cy="611.671" r="3.299"/>
		</g>
		<g>
			<path style="fill:#FFFFFF;" d="M1468.063,590.847c-3.945,0-7.155-3.209-7.155-7.155s3.21-7.155,7.155-7.155
				c3.944,0,7.154,3.209,7.154,7.155S1472.007,590.847,1468.063,590.847z M1468.063,577.652c-3.33,0-6.04,2.71-6.04,6.039
				c0,3.33,2.71,6.039,6.04,6.039c3.329,0,6.039-2.709,6.039-6.039C1474.102,580.362,1471.392,577.652,1468.063,577.652z"/>
		</g>
		<g>
			<path style="fill:#FFFFFF;" d="M1103.185,563.82c-8.478,0-15.374-6.898-15.374-15.376c0-8.477,6.896-15.374,15.374-15.374
				s15.375,6.896,15.375,15.374C1118.56,556.922,1111.662,563.82,1103.185,563.82z M1103.185,534.185
				c-7.861,0-14.259,6.398-14.259,14.259c0,7.862,6.397,14.26,14.259,14.26c7.862,0,14.259-6.398,14.259-14.26
				C1117.443,540.583,1111.047,534.185,1103.185,534.185z"/>
		</g>
		<g>
			<g>
				<path style="fill:#FFFFFF;" d="M1515.683,733.596c-25.646,0-46.512-20.865-46.512-46.512c0-25.647,20.865-46.513,46.512-46.513
					c25.647,0,46.513,20.865,46.513,46.513C1562.195,712.731,1541.33,733.596,1515.683,733.596z M1515.683,642.485
					c-24.591,0-44.599,20.006-44.599,44.599c0,24.591,20.008,44.598,44.599,44.598c24.592,0,44.599-20.007,44.599-44.598
					C1560.281,662.491,1540.274,642.485,1515.683,642.485z"/>
			</g>
			<g>
				<path style="fill:#FFFFFF;" d="M1441.918,718.181c-11.86,0-24.015-1.559-25.555-7.735c-1.105-4.44,3.613-9.844,14.028-16.06
					c9.711-5.796,23.684-11.865,40.409-17.55l0.591,1.738c-33.153,11.27-55.049,24.192-53.246,31.428
					c1.139,4.57,12.239,6.895,29.685,6.223c18.39-0.71,42.145-4.496,66.889-10.663c24.745-6.166,47.499-13.969,64.071-21.971
					c15.725-7.593,24.433-14.854,23.293-19.426c-1.209-4.855-15.167-8.922-50.53-4.4l-0.233-1.821
					c11.619-1.486,49.744-5.461,52.546,5.778c1.802,7.23-12.208,15.695-24.276,21.523c-16.683,8.055-39.563,15.903-64.426,22.1
					c-24.862,6.195-48.751,10.001-67.262,10.716C1445.951,718.135,1443.938,718.181,1441.918,718.181z"/>
			</g>
			<g>
				<path style="fill:#FFFFFF;" d="M1503.808,697.898c-4.591,0-8.803-3.358-9.915-8.253c-0.619-2.727-0.196-5.52,1.192-7.864
					c1.392-2.348,3.584-3.965,6.175-4.554l0,0c5.343-1.213,10.728,2.384,12.008,8.017c1.279,5.634-2.025,11.204-7.367,12.418
					C1505.2,697.82,1504.499,697.898,1503.808,697.898z M1503.353,677.471c-0.657,0-1.322,0.071-1.987,0.223l0,0
					c-2.461,0.559-4.544,2.097-5.868,4.33c-1.325,2.239-1.729,4.907-1.138,7.515c1.22,5.376,6.349,8.806,11.435,7.656
					c5.084-1.154,8.227-6.469,7.006-11.845C1511.738,680.676,1507.723,677.471,1503.353,677.471z"/>
			</g>
			<g>
				<path style="fill:#FFFFFF;" d="M1519.498,723.984c-0.141,0-0.28-0.006-0.423-0.02c-2.901-0.271-5.002-3.281-4.682-6.709
					c0.322-3.428,2.939-5.993,5.847-5.722l0,0c2.903,0.272,5.003,3.281,4.683,6.709
					C1524.616,721.503,1522.229,723.984,1519.498,723.984z M1519.817,711.993c-2.485,0-4.665,2.295-4.947,5.308
					c-0.297,3.164,1.61,5.939,4.25,6.188c2.627,0.242,5.028-2.126,5.326-5.29c0.297-3.164-1.61-5.94-4.251-6.188
					C1520.069,711.999,1519.943,711.993,1519.817,711.993z"/>
			</g>
			<g>
				<path style="fill:#FFFFFF;" d="M1538.085,677.663c-3.733,0-7.243-3.021-8.231-7.366c-0.54-2.384-0.251-4.808,0.817-6.826
					c1.075-2.03,2.807-3.406,4.878-3.877l0,0c2.066-0.472,4.226,0.022,6.072,1.391c1.834,1.358,3.144,3.419,3.686,5.804
					c0.54,2.384,0.251,4.809-0.817,6.826c-1.075,2.029-2.807,3.407-4.877,3.876C1539.103,677.607,1538.592,677.663,1538.085,677.663
					z M1537.088,659.898c-0.479,0-0.959,0.055-1.434,0.162l0,0c-1.933,0.439-3.552,1.729-4.561,3.633
					c-1.015,1.918-1.289,4.225-0.772,6.498c1.062,4.676,5.183,7.743,9.185,6.833c1.933-0.439,3.552-1.731,4.561-3.635
					c1.015-1.916,1.289-4.224,0.772-6.496c-0.516-2.272-1.76-4.234-3.503-5.525C1540.029,660.402,1538.561,659.898,1537.088,659.898
					z"/>
			</g>
			<g>
				<path style="fill:#FFFFFF;" d="M1501.144,668.777c-1.463,0-2.865-0.485-3.955-1.484l0,0c-1.249-1.146-1.902-2.784-1.844-4.614
					c0.059-1.817,0.816-3.608,2.132-5.041c1.314-1.435,3.033-2.342,4.839-2.557c1.815-0.214,3.507,0.296,4.755,1.441
					c1.249,1.144,1.904,2.784,1.845,4.614c-0.06,1.817-0.815,3.608-2.131,5.041C1505.216,667.887,1503.125,668.777,1501.144,668.777
					z M1503.121,655.512c-0.246,0-0.497,0.016-0.749,0.045c-1.692,0.201-3.306,1.055-4.544,2.404
					c-1.238,1.35-1.949,3.03-2.005,4.733c-0.055,1.688,0.545,3.197,1.688,4.246v0.001c2.374,2.176,6.374,1.688,8.92-1.086
					c1.238-1.35,1.949-3.03,2.005-4.732c0.055-1.688-0.546-3.198-1.689-4.247C1505.775,655.983,1504.509,655.512,1503.121,655.512z"
					/>
			</g>
			<g>
				<path style="fill:#FFFFFF;" d="M1488.974,671.854c-0.709,0-1.391-0.235-1.919-0.721l0,0c-0.607-0.557-0.925-1.352-0.897-2.237
					c0.029-0.873,0.392-1.732,1.021-2.418c0.631-0.688,1.456-1.123,2.323-1.225c0.878-0.104,1.698,0.143,2.305,0.7
					c0.606,0.557,0.925,1.351,0.896,2.237c-0.028,0.872-0.391,1.732-1.021,2.419
					C1490.931,671.428,1489.927,671.854,1488.974,671.854z M1487.378,670.779c1.048,0.962,2.82,0.737,3.952-0.494
					c0.553-0.604,0.87-1.354,0.895-2.111c0.024-0.744-0.239-1.408-0.741-1.869c-0.501-0.461-1.189-0.667-1.925-0.578
					c-0.754,0.089-1.474,0.471-2.027,1.074c-0.553,0.602-0.87,1.351-0.895,2.109
					C1486.612,669.656,1486.875,670.318,1487.378,670.779L1487.378,670.779z"/>
			</g>
		</g>
		<g>
			<path style="fill:#FFFFFF;" d="M1528.73,480.512l9.051-8.005l-3.637,8.063c-1.362,3.021-0.301,6.581,2.492,8.363l8.176,5.215
				l-11.287-0.476c-1.895-0.08-3.594,1.156-4.103,2.983l-3.02,10.867l-2.765-11.713c-0.324-1.376-1.583-2.325-2.995-2.259
				l-12.649,0.597l7.559-4.064c3.592-1.932,5.008-6.362,3.203-10.021l-3.729-7.556l9.05,8.005
				C1525.405,481.686,1527.401,481.686,1528.73,480.512z"/>
		</g>
		<g>
			<path style="fill:#FFFFFF;" d="M1446.912,419.327l-3.264-13.828c-0.263-1.114-1.291-1.878-2.426-1.829l-15.105,0.713l9.725-5.23
				c3.345-1.799,4.648-5.876,2.967-9.282l-4.986-10.102l11.176,9.886c1.12,0.988,2.801,0.985,3.917,0l10.996-9.727l-4.706,10.432
				c-1.237,2.748-0.257,6.042,2.284,7.663l9.924,6.331l-13.357-0.564c-1.669-0.077-3.101,0.99-3.542,2.576L1446.912,419.327z
				 M1441.336,402.551c1.611,0,3.025,1.108,3.399,2.691l2.265,9.599l2.439-8.775c0.579-2.088,2.48-3.484,4.663-3.392l9.214,0.389
				l-6.428-4.1c-3.004-1.917-4.166-5.813-2.7-9.063l2.567-5.693l-7.103,6.282c-1.535,1.359-3.856,1.36-5.394,0l-6.923-6.124
				l2.472,5.01c1.949,3.947,0.438,8.673-3.438,10.759l-5.393,2.9l10.192-0.481C1441.225,402.552,1441.28,402.551,1441.336,402.551z"
				/>
		</g>
		<g>
			<path style="fill:#FFFFFF;" d="M1880.756,261.747l-3.264-13.829c-0.264-1.114-1.29-1.876-2.427-1.829l-15.104,0.713l9.724-5.23
				c3.345-1.799,4.647-5.876,2.967-9.282l-4.986-10.102l11.177,9.886c1.12,0.988,2.801,0.986,3.916-0.001l10.996-9.726
				l-4.705,10.432c-1.238,2.748-0.258,6.042,2.284,7.663l9.925,6.331l-13.358-0.564c-1.68-0.085-3.102,0.99-3.543,2.576
				L1880.756,261.747z M1875.179,244.971c1.611,0,3.025,1.108,3.399,2.691l2.266,9.599l2.438-8.774
				c0.579-2.088,2.49-3.479,4.664-3.392l9.214,0.389l-6.427-4.1c-3.006-1.917-4.167-5.813-2.701-9.063l2.567-5.693l-7.104,6.283
				c-1.537,1.36-3.857,1.359-5.394,0l-6.923-6.124l2.473,5.01c1.948,3.947,0.438,8.673-3.439,10.759l-5.392,2.9l10.191-0.482
				C1875.068,244.972,1875.123,244.971,1875.179,244.971z"/>
		</g>
	</g>
	<g>
		<path style="fill:#74A1BD;" d="M1847.945,1004.844c1.49-7.507,2.989-13.858,13.859-13.858c7.653,0,13.857,6.205,13.857,13.858
			c0,7.654-4.014,13.688-11.668,13.688C1856.341,1018.531,1845.59,1016.706,1847.945,1004.844z"/>
	</g>
	<g>
		<path style="fill:#74A1BD;" d="M1767.505,1115.835c1.491-7.507,2.99-13.859,13.859-13.859c7.654,0,13.858,6.206,13.858,13.859
			c0,7.654-4.014,13.687-11.668,13.687C1775.901,1129.521,1765.15,1127.696,1767.505,1115.835z"/>
	</g>
	<g>
		<path style="fill:#74A1BD;" d="M1937.883,1115.835c1.49-7.507,2.99-13.859,13.859-13.859c7.654,0,13.858,6.206,13.858,13.859
			c0,7.654-4.015,13.687-11.668,13.687S1935.528,1127.696,1937.883,1115.835z"/>
	</g>
	<g>
		<path style="fill:#74A1BD;" d="M2063.435,1174.465c1.49-7.507,2.989-13.857,13.858-13.857c7.654,0,13.859,6.204,13.859,13.857
			c0,7.654-4.015,13.688-11.668,13.688C2071.83,1188.152,2061.08,1186.326,2063.435,1174.465z"/>
	</g>
	<g>
		<path style="fill:#74A1BD;" d="M2152.908,1115.835c1.491-7.507,2.99-13.859,13.859-13.859c7.653,0,13.859,6.206,13.859,13.859
			c0,7.654-4.015,13.687-11.67,13.687C2161.304,1129.521,2150.554,1127.696,2152.908,1115.835z"/>
	</g>
	<g>
		<path style="fill:#74A1BD;" d="M2054.895,1028.379c1.49-7.507,2.989-13.857,13.858-13.857c7.655,0,13.859,6.204,13.859,13.857
			c0,7.654-4.015,13.688-11.669,13.688S2052.54,1040.24,2054.895,1028.379z"/>
	</g>
	<g>
		<path style="fill:#74A1BD;" d="M1501.831,1023.782c1.49-7.508,2.989-13.859,13.858-13.859c7.654,0,13.859,6.206,13.859,13.859
			s-4.015,13.687-11.668,13.687C1510.227,1037.469,1499.477,1035.644,1501.831,1023.782z"/>
	</g>
	<g>
		<path style="fill:#74A1BD;" d="M1631.171,1344.67c1.49-7.508,2.99-13.859,13.858-13.859c7.654,0,13.859,6.205,13.859,13.859
			c0,7.653-4.015,13.687-11.668,13.687C1639.565,1358.356,1628.816,1356.531,1631.171,1344.67z"/>
	</g>
	<g>
		<path style="fill:#74A1BD;" d="M1403.402,1219.833c1.49-7.508,2.99-13.858,13.859-13.858c7.654,0,13.858,6.204,13.858,13.858
			c0,7.653-4.015,13.687-11.668,13.687S1401.049,1231.694,1403.402,1219.833z"/>
	</g>
	<g>
		<path style="fill:#74A1BD;" d="M1451.957,1344.67c1.49-7.508,2.99-13.859,13.858-13.859c7.654,0,13.859,6.205,13.859,13.859
			c0,7.653-4.015,13.687-11.668,13.687C1460.352,1358.356,1449.602,1356.531,1451.957,1344.67z"/>
	</g>
	<g>
		<path style="fill:#74A1BD;" d="M1664.475,1195.24c1.491-7.508,2.99-13.859,13.859-13.859c7.654,0,13.858,6.205,13.858,13.859
			c0,7.653-4.014,13.687-11.668,13.687C1672.871,1208.927,1662.12,1207.102,1664.475,1195.24z"/>
	</g>
	<g>
		<path style="fill:#74A1BD;" d="M1540.027,1256.266c1.49-7.508,2.989-13.858,13.858-13.858c7.654,0,13.859,6.204,13.859,13.858
			c0,7.653-4.015,13.687-11.669,13.687C1548.423,1269.952,1537.672,1268.127,1540.027,1256.266z"/>
	</g>
</g>
</svg>
